<svg width="45" height="46" viewBox="0 0 45 46" fill="none" xmlns="http://www.w3.org/2000/svg">
<path d="M0.00903011 45.5L3.05103 34.322C1.04659 30.8859 -0.00650392 26.978 3.02225e-05 23C3.02225e-05 10.5733 10.0733 0.5 22.5 0.5C34.9268 0.5 45 10.5733 45 23C45 35.4268 34.9268 45.5 22.5 45.5C18.5238 45.5064 14.6175 44.4541 11.1825 42.4513L0.00903011 45.5ZM14.3798 12.443C14.0892 12.461 13.8053 12.5376 13.545 12.668C13.301 12.8062 13.0781 12.979 12.8835 13.181C12.6135 13.4353 12.4605 13.6558 12.2963 13.8695C11.4647 14.9517 11.0174 16.2802 11.025 17.645C11.0295 18.7475 11.3175 19.8207 11.7675 20.8242C12.6878 22.8538 14.202 25.0025 16.2023 26.9937C16.6838 27.473 17.154 27.9545 17.6603 28.4023C20.1429 30.588 23.1014 32.1643 26.3003 33.0058L27.5805 33.2015C27.9968 33.224 28.413 33.1925 28.8315 33.1722C29.4868 33.1384 30.1267 32.961 30.7058 32.6525C31.0004 32.5007 31.288 32.3356 31.5675 32.1575C31.5675 32.1575 31.6643 32.0945 31.8488 31.955C32.1525 31.73 32.3393 31.5703 32.5913 31.307C32.778 31.1135 32.94 30.8863 33.0638 30.6275C33.2393 30.2607 33.4148 29.561 33.4868 28.9782C33.5408 28.5327 33.525 28.2898 33.5183 28.139C33.5093 27.8983 33.309 27.6485 33.0908 27.5427L31.7813 26.9555C31.7813 26.9555 29.8238 26.1028 28.629 25.5583C28.5031 25.5033 28.3681 25.4721 28.2308 25.466C28.0768 25.4502 27.9213 25.4675 27.7746 25.5168C27.6279 25.5661 27.4934 25.6462 27.3803 25.7517V25.7472C27.369 25.7472 27.2183 25.8755 25.5915 27.8465C25.4982 27.972 25.3695 28.0668 25.2221 28.1189C25.0746 28.171 24.915 28.178 24.7635 28.139C24.6169 28.0998 24.4733 28.0502 24.3338 27.9905C24.0548 27.8735 23.958 27.8285 23.7668 27.7453L23.7555 27.7408C22.4683 27.1788 21.2765 26.4197 20.223 25.4908C19.9395 25.2432 19.6763 24.9732 19.4063 24.7122C18.5211 23.8645 17.7496 22.9055 17.1113 21.8592L16.9785 21.6455C16.8832 21.5019 16.8061 21.3469 16.749 21.1842C16.6635 20.8535 16.8863 20.588 16.8863 20.588C16.8863 20.588 17.433 19.9895 17.6873 19.6655C17.899 19.3962 18.0965 19.1161 18.279 18.8263C18.5445 18.3988 18.6278 17.96 18.4883 17.6203C17.8583 16.0813 17.2058 14.549 16.5353 13.028C16.4025 12.7265 16.0088 12.5105 15.651 12.4677C15.5295 12.4542 15.408 12.4408 15.2865 12.4318C14.9844 12.4167 14.6816 12.422 14.3798 12.443Z" fill="black"/>
</svg>
