<svg width="573" height="1036" viewBox="0 0 573 1036" fill="none" xmlns="http://www.w3.org/2000/svg">
<g clip-path="url(#clip0_28_19)">
<g opacity="0.3">
<path d="M-16.5399 696.633L-43.7905 684.004C-50.8859 680.716 -58.9812 680.313 -66.3683 682.88C-86.4091 689.844 -107.185 674.484 -106.402 653.282L-105.831 637.814C-105.567 630.65 -103.417 623.683 -99.5982 617.617L-87.9648 599.133C-81.432 588.753 -69.7687 582.751 -57.5254 583.468L-40.7742 584.448C-28.1314 585.189 -19.3577 597.353 -22.6458 609.584C-24.9602 618.192 -21.2925 627.292 -13.6556 631.89L10.1995 646.252C18.243 651.094 23.3927 659.581 23.9741 668.951C25.3139 690.546 3.09042 705.73 -16.5399 696.633Z" stroke="black"/>
<path d="M-3.93967 709.171L-41.6612 691.747C-51.4505 687.225 -62.6127 686.679 -72.7967 690.224C-100.482 699.859 -129.188 678.62 -128.071 649.328L-127.263 628.114C-126.887 618.249 -123.916 608.659 -118.648 600.31L-102.473 574.671C-93.4647 560.393 -77.4141 552.132 -60.5592 553.098L-37.3122 554.431C-19.8776 555.43 -7.7753 572.212 -12.3316 589.071C-15.5399 600.941 -10.4801 613.499 0.0617453 619.83L32.9045 639.553C44.0457 646.243 51.1761 657.993 51.9672 670.964C53.7836 700.748 23.1487 721.684 -3.93967 709.171Z" stroke="black"/>
<path d="M9.34923 722.816L-39.2309 700.206C-51.9355 694.293 -66.4421 693.554 -79.682 698.145C-115.505 710.567 -152.632 683.145 -151.293 645.252L-150.307 617.337C-149.853 604.477 -146.012 591.965 -139.174 581.065L-118.558 548.204C-106.853 529.546 -85.8982 518.764 -63.9123 520.087L-34.1525 521.878C-11.5003 523.241 4.21391 545.025 -1.63956 566.951C-5.75749 582.375 0.810386 598.665 14.4753 606.919L57.3091 632.794C71.6358 641.448 80.813 656.573 81.8728 673.277C84.3271 711.96 44.4897 739.172 9.34923 722.816Z" stroke="black"/>
<path d="M25.6667 738.957L-36.516 710.165C-52.6925 702.675 -71.1456 701.761 -87.9836 707.614C-133.689 723.503 -181.073 688.464 -179.273 640.109L-177.962 604.9C-177.354 588.576 -172.45 572.702 -163.745 558.88L-137.167 516.679C-122.276 493.033 -95.7031 479.358 -67.8065 480.982L-29.5558 483.209C-0.735799 484.887 19.2658 512.62 11.7606 540.497C6.47733 560.12 14.8389 580.868 32.2523 591.345L86.6078 624.047C104.965 635.091 116.717 654.457 118.038 675.84C121.078 725.068 70.4232 759.68 25.6667 738.957Z" stroke="black"/>
<path d="M38.9558 752.602L-34.0858 718.625C-53.1775 709.743 -74.975 708.636 -94.8688 715.536C-148.713 734.211 -204.518 692.988 -202.495 636.034L-201.006 594.123C-200.32 574.805 -194.547 556.009 -184.271 539.636L-153.252 490.212C-135.664 462.187 -104.187 445.991 -71.1596 447.972L-26.3961 450.656C7.6415 452.698 31.2551 485.434 22.4527 518.377C16.2598 541.554 26.1294 566.034 46.6659 578.435L111.012 617.289C132.555 630.297 146.354 653.038 147.943 678.154C151.621 736.28 91.7643 777.168 38.9558 752.602Z" stroke="black"/>
<path d="M57.477 771.098L-30.9272 730.051C-53.9905 719.342 -80.3131 718.018 -104.335 726.357C-169.427 748.955 -236.898 699.094 -234.405 630.235L-232.524 578.289C-231.715 555.955 -225.027 534.229 -213.134 515.306L-174.7 454.152C-153.459 420.355 -115.49 400.817 -75.643 403.179L-21.3829 406.395C19.7236 408.831 48.2457 448.374 37.5852 488.149C30.0835 516.139 42.0056 545.715 66.8214 560.678L144.458 607.488C170.542 623.215 187.246 650.743 189.151 681.142C193.55 751.346 121.277 800.721 57.477 771.098Z" stroke="black"/>
<path d="M78.2015 791.948L-27.3257 742.944C-54.8599 730.157 -86.2862 728.575 -114.966 738.531C-192.673 765.506 -273.218 705.984 -270.246 623.782L-267.764 555.138C-266.956 532.803 -260.268 511.076 -248.377 492.153L-197.866 411.776C-173.198 372.521 -129.098 349.828 -82.8159 352.573L-15.9534 356.539C33.1229 359.45 67.1744 406.66 54.4498 454.147C45.4955 487.564 59.7289 522.873 89.3548 540.738L182.05 596.634C213.185 615.409 233.124 648.268 235.4 684.554C240.656 768.37 154.37 827.318 78.2015 791.948Z" stroke="black"/>
<path d="M-121.919 748.901L-135.582 753.638C-219.881 782.865 -307.246 718.341 -304.106 629.175L-300.725 533.18C-299.938 510.841 -293.269 489.105 -281.392 470.169L-214.624 363.717C-189.945 324.37 -145.755 301.633 -99.3931 304.428L-11.2425 309.742C45.3284 313.152 84.5718 367.555 69.9603 422.313C59.6815 460.833 76.0833 501.513 110.207 522.13L217.435 586.919C253.049 608.438 275.88 646.317 278.519 687.843C284.633 784.041 185.614 852.614 98.2292 811.93L-26.7148 753.76C-56.6148 739.84 -90.7575 738.097 -121.919 748.901Z" stroke="black"/>
<path d="M-125.284 758.555L-172.399 774.892C-256.702 804.123 -344.074 739.592 -340.926 650.419L-335.969 510.028C-335.18 487.689 -328.51 465.954 -316.631 447.019L-232.229 312.474C-207.551 273.136 -163.369 250.403 -117.014 253.193L-5.81301 259.887C58.7277 263.772 103.501 325.841 86.8248 388.311C75.0935 432.259 93.8066 478.671 132.74 502.191L263.079 580.93C298.7 602.449 321.519 640.056 324.155 681.589L326.744 722.375C332.849 818.564 233.787 886.231 146.406 845.559L-30.0855 763.408C-59.9847 749.491 -94.125 747.751 -125.284 758.555Z" stroke="black"/>
<path d="M-129.004 769.283L-213.248 798.483C-297.535 827.698 -384.885 763.193 -381.762 674.041L-375.111 484.164C-374.329 461.824 -367.664 440.087 -355.79 421.148L-251.92 255.478C-227.239 216.112 -183.031 193.367 -136.653 196.172L0.0328129 204.439C73.4443 208.879 124.368 279.472 105.422 350.536C92.0944 400.524 113.377 453.307 157.652 480.069L313.736 574.416C349.332 595.933 372.136 633.517 374.781 675.027L380.181 759.771C386.312 855.989 287.208 923.68 199.812 882.97L-33.786 774.156C-63.688 760.227 -97.8365 758.48 -129.004 769.283Z" stroke="black"/>
<path d="M-132.978 780.621L-256.564 823.481C-340.875 852.72 -428.257 788.176 -425.096 698.994L-416.525 457.108C-415.733 434.77 -409.06 413.037 -397.18 394.103L-272.47 195.359C-247.793 156.033 -203.624 133.306 -157.28 136.089L11.575 146.231C91.7609 151.047 147.389 228.166 126.659 305.775L124.583 313.549C110 368.149 133.25 425.817 181.627 455.033L367.418 567.24C403.052 588.761 425.877 626.378 428.509 667.922L436.828 799.222C442.921 895.398 343.878 963.053 256.505 922.398L-37.7884 785.464C-67.6861 771.553 -101.823 769.816 -132.978 780.621Z" stroke="black"/>
<path d="M-137.437 793.338L-305.161 851.531C-389.493 880.79 -476.899 816.214 -473.709 727.008L-462.971 426.745C-462.172 404.409 -455.492 382.678 -443.607 363.75L-295.537 127.936C-270.864 88.6415 -226.726 65.9299 -180.41 68.6962L39.1426 81.8094C119.366 86.6008 175.024 163.763 154.258 241.4L143.73 280.758C129.118 335.384 152.382 393.09 200.795 422.308L427.637 559.211C463.3 580.735 486.141 618.378 488.763 659.95L500.335 843.435C506.398 939.577 407.404 1007.2 320.049 966.593L-42.2706 798.157C-72.1648 784.26 -106.292 782.532 -137.437 793.338Z" stroke="black"/>
<path d="M-141.549 804.98L-349.768 877.271C-434.13 906.561 -521.576 841.936 -518.338 752.693L-505.512 399.095C-504.701 376.761 -498.012 355.035 -486.118 336.114L-316.522 66.2975C-291.854 27.0532 -247.765 4.36518 -201.493 7.10466L64.5254 22.8538C144.808 27.6067 200.513 104.838 179.688 182.518L161.412 250.687C146.757 305.351 170.042 363.117 218.511 392.337L482.871 551.711C518.58 573.238 541.448 610.923 544.053 652.538L558.534 883.804C564.55 979.894 465.633 1047.47 378.306 1006.93L-46.4191 809.762C-76.3078 795.887 -110.419 794.172 -141.549 804.98Z" stroke="black"/>
</g>
</g>
<defs>
<clipPath id="clip0_28_19">
<rect width="573" height="1036" fill="white"/>
</clipPath>
</defs>
</svg>
