<svg width="665" height="833" viewBox="0 0 665 833" fill="none" xmlns="http://www.w3.org/2000/svg">
<g clip-path="url(#clip0_28_2)">
<g opacity="0.3">
<path d="M138.518 401.355L113.128 392.046C106.517 389.622 101.107 384.725 98.0377 378.387C89.7119 361.194 66.7055 357.746 53.7052 371.743L44.2206 381.955C39.828 386.684 36.7612 392.488 35.3296 398.782L30.9681 417.957C28.5189 428.725 32.1231 439.972 40.3745 447.311L51.6639 457.351C60.1845 464.929 73.5156 462.77 79.2087 452.89C83.216 445.936 91.345 442.477 99.1344 444.412L123.466 450.456C131.67 452.494 140.352 450.37 146.688 444.774C161.29 431.878 156.808 408.062 138.518 401.355Z" stroke="black"/>
<path d="M154.523 401.395L119.413 388.472C110.302 385.118 102.847 378.36 98.62 369.619C87.1281 345.858 55.33 341.104 37.3908 360.464L24.3992 374.485C18.3581 381.005 14.1438 389.003 12.1819 397.672L6.15699 424.294C2.80162 439.12 7.76078 454.599 19.1071 464.715L34.7565 478.667C46.493 489.131 64.8828 486.151 72.7152 472.517C78.2303 462.917 89.4472 458.143 100.189 460.824L133.657 469.177C145.01 472.011 157.03 469.07 165.792 461.315C185.911 443.509 179.736 410.675 154.523 401.395Z" stroke="black"/>
<path d="M171.671 401.168L126.346 384.634C114.493 380.31 104.786 371.544 99.2796 360.192C84.3806 329.475 43.284 323.297 20.0114 348.274L2.8663 366.675C-5.03172 375.152 -10.5526 385.563 -13.1387 396.856L-20.935 430.904C-25.3616 450.235 -18.8847 470.441 -4.04467 483.597L16.0426 501.404C31.3324 514.958 55.207 511.093 65.4394 493.407C72.6379 480.965 87.1909 474.776 101.146 478.22L144.891 489.018C159.523 492.629 174.995 488.842 186.305 478.882C212.496 455.817 204.457 413.128 171.671 401.168Z" stroke="black"/>
<path d="M192.337 401.281L134.416 380.022C119.348 374.491 107.017 363.325 100.023 348.878C81.0396 309.662 28.5631 301.802 -1.07715 333.735L-22.6588 356.986C-32.6647 367.766 -39.6491 380.995 -42.9071 395.338L-52.8541 439.127C-58.4273 463.663 -50.2162 489.288 -31.4211 506.015L-5.65002 528.95C13.7673 546.231 44.1589 541.308 57.1285 518.782C66.2584 502.924 84.7921 495.038 102.549 499.455L157.976 513.241C176.696 517.897 196.507 513.049 210.962 500.276C244.24 470.87 234.026 416.582 192.337 401.281Z" stroke="black"/>
<path d="M209.485 401.054L141.349 376.183C123.539 369.682 108.956 356.51 100.683 339.451C78.292 293.28 16.5169 283.995 -18.4565 321.545L-44.1919 349.176C-56.0546 361.913 -64.3458 377.555 -68.2278 394.521L-79.946 445.737C-86.5905 474.778 -76.8617 505.13 -54.5729 524.897L-24.364 551.687C-1.39353 572.058 34.4829 566.25 49.8526 539.672C60.6659 520.973 82.5356 511.671 103.506 516.851L169.211 533.081C191.208 538.515 214.473 532.822 231.475 517.843C270.824 483.177 258.747 419.035 209.485 401.054Z" stroke="black"/>
<path d="M233.053 401.07L150.634 370.919C129.133 363.053 111.53 347.138 101.546 326.534C74.4905 270.704 -0.21204 259.493 -42.4648 304.92L-73.4248 338.207C-87.7291 353.586 -97.7216 372.468 -102.393 392.945L-116.559 455.041C-124.554 490.082 -112.82 526.695 -85.946 550.561L-49.3527 583.059C-21.6301 607.68 21.7055 600.663 40.2418 568.552C53.286 545.955 79.7069 534.716 105.033 540.989L184.265 560.615C210.885 567.209 239.046 560.318 259.613 542.176C307.111 500.28 292.533 422.83 233.053 401.07Z" stroke="black"/>
<path d="M259.522 400.991L161.136 365.004C135.465 355.614 114.449 336.613 102.528 312.015C70.2287 245.367 -18.9487 231.982 -69.3921 286.21L-109.567 329.399C-124.549 345.506 -135.016 365.281 -139.91 386.727L-157.867 465.424C-167.414 507.262 -153.403 550.977 -121.316 579.471L-77.6371 618.258C-44.5381 647.65 7.19884 639.273 29.3313 600.937C44.9057 573.961 76.4484 560.542 106.684 568.03L201.289 591.459C233.065 599.329 266.68 591.103 291.232 569.449C347.941 519.433 330.536 426.965 259.522 400.991Z" stroke="black"/>
<path d="M284.233 400.741L171.069 359.475C141.465 348.68 117.222 326.791 103.469 298.44C66.2634 221.746 -36.3482 206.314 -94.4648 268.674L-144.53 322.395C-159.53 338.49 -170.016 358.259 -174.929 379.704L-198.145 481.041C-208.353 525.602 -193.423 572.181 -159.211 602.502L-104.433 651.052C-66.244 684.898 -6.62201 675.246 18.938 631.08C36.9188 600.011 73.2609 584.554 108.113 593.153L217.387 620.112C253.915 629.125 292.541 619.671 320.778 594.808C386.191 537.212 366.115 430.6 284.233 400.741Z" stroke="black"/>
<path d="M106.826 288.817L95.8936 266.28C57.565 187.262 -48.1551 171.366 -108.025 235.619L-181.71 314.697C-196.708 330.793 -207.193 350.562 -212.104 372.007L-241.979 502.459C-252.182 547.013 -237.255 593.583 -203.051 623.903L-132.717 686.25C-89.1522 724.868 -21.1288 713.856 8.02728 663.466C28.5384 628.017 70.0023 610.381 109.765 620.194L237.47 651.712C277.238 661.527 319.292 651.234 350.033 624.163L360.008 615.378C431.202 552.683 409.352 436.644 320.231 404.137L176.459 351.695C145.964 340.572 120.992 318.023 106.826 288.817Z" stroke="black"/>
<path d="M111.286 279.618L84.9047 225.245C46.5762 146.251 -59.1106 130.351 -118.985 194.572L-223.097 306.243C-238.1 322.335 -248.59 342.103 -253.507 363.548L-290.802 526.206C-301.022 570.781 -286.085 617.379 -251.854 647.705L-164.298 725.274C-114.732 769.187 -37.365 756.663 -4.18337 699.357C19.1576 659.045 66.3137 638.99 111.541 650.139L265.577 688.113C305.326 697.912 347.355 687.626 378.085 660.577L417.828 625.595C489.06 562.898 467.198 446.813 378.039 414.321L180.947 342.495C150.442 331.378 125.46 308.828 111.286 279.618Z" stroke="black"/>
<path d="M115.977 269.87L73.2441 181.761C34.9155 102.733 -70.8204 86.8389 -130.689 151.106L-266.691 297.101C-281.686 313.199 -292.168 332.969 -297.077 354.414L-342.165 551.404C-352.361 595.948 -337.437 642.506 -303.246 672.823L-197.368 766.703C-141.513 816.228 -54.2872 802.107 -16.9115 737.489C9.3833 692.029 62.5541 669.414 113.54 682.004L295.183 726.857C334.96 736.679 377.026 726.384 407.772 699.302L479.028 636.538C550.204 573.843 528.359 457.826 439.255 425.311L185.597 332.748C155.107 321.622 130.14 299.073 115.977 269.87Z" stroke="black"/>
<path d="M121.235 258.936L60.1631 132.97C21.8344 53.9143 -83.9408 38.0246 -143.805 102.33L-315.593 286.861C-330.583 302.963 -341.058 322.735 -345.96 344.181L-399.781 579.649C-409.957 624.168 -395.044 670.694 -360.885 701.003L-227.233 819.589C-168.065 872.088 -75.6254 857.122 -36.0453 788.635L-28.2246 775.103C-0.375977 726.916 55.9768 702.945 110.005 716.304L328.407 770.306C368.207 780.146 410.303 769.844 441.06 742.736L547.623 648.817C618.756 586.125 596.924 470.163 507.864 437.629L190.823 321.814C160.345 310.681 135.391 288.133 121.235 258.936Z" stroke="black"/>
<path d="M126.031 248.907L48.154 88.1939C9.82508 9.09566 -96.0117 -6.787 -155.869 57.5768L-360.284 277.38C-375.264 293.488 -385.728 313.263 -390.62 334.71L-452.389 605.538C-462.534 650.019 -447.64 696.494 -413.529 726.791L-248.614 873.271C-189.432 925.837 -96.9114 910.855 -57.3423 842.298L-36.1131 805.517C-8.26758 757.272 48.1413 733.274 102.21 746.671L358.792 810.243C398.627 820.113 440.77 809.8 471.546 782.651L610.399 660.162C681.462 597.473 659.651 481.596 570.66 449.034L195.567 311.786C165.109 300.641 140.174 278.094 126.031 248.907Z" stroke="black"/>
</g>
</g>
<defs>
<clipPath id="clip0_28_2">
<rect width="665" height="833" fill="white"/>
</clipPath>
</defs>
</svg>
