<svg width="398" height="360" viewBox="0 0 398 360" fill="none" xmlns="http://www.w3.org/2000/svg">
<rect y="19" width="46" height="341" fill="#FCB212"/>
<rect x="331" y="20" width="67" height="67" fill="#FCB212"/>
<path d="M347.5 59.375L369.375 37.5L378.75 46.875L356.875 68.75L347.5 59.375Z" stroke="black" stroke-width="6.25" stroke-linecap="round" stroke-linejoin="round"/>
<path d="M366.25 40.625L361.562 17.1875L316.25 6.25L327.188 51.5625L350.625 56.25L366.25 40.625Z" stroke="black" stroke-width="6.25" stroke-linecap="round" stroke-linejoin="round"/>
<path d="M316.25 6.25L339.956 29.9563" stroke="black" stroke-width="6.25" stroke-linecap="round" stroke-linejoin="round"/>
<path d="M344.375 40.625C347.827 40.625 350.625 37.8268 350.625 34.375C350.625 30.9232 347.827 28.125 344.375 28.125C340.923 28.125 338.125 30.9232 338.125 34.375C338.125 37.8268 340.923 40.625 344.375 40.625Z" stroke="black" stroke-width="6.25" stroke-linecap="round" stroke-linejoin="round"/>
</svg>
