<svg width="467" height="360" viewBox="0 0 467 360" fill="none" xmlns="http://www.w3.org/2000/svg">
<rect y="19" width="46" height="341" fill="#FCB212"/>
<rect x="400" y="20" width="67" height="67" fill="#FCB212"/>
<path d="M455.875 59.375C455.875 61.0326 455.217 62.6223 454.044 63.7944C452.872 64.9665 451.283 65.625 449.625 65.625H393.375C391.717 65.625 390.128 64.9665 388.956 63.7944C387.783 62.6223 387.125 61.0326 387.125 59.375V25C387.125 23.3424 387.783 21.7527 388.956 20.5806C390.128 19.4085 391.717 18.75 393.375 18.75H405.875L412.125 9.375H430.875L437.125 18.75H449.625C451.283 18.75 452.872 19.4085 454.044 20.5806C455.217 21.7527 455.875 23.3424 455.875 25V59.375Z" stroke="black" stroke-width="6.25" stroke-linecap="round" stroke-linejoin="round"/>
<path d="M421.5 53.125C428.404 53.125 434 47.5286 434 40.625C434 33.7214 428.404 28.125 421.5 28.125C414.596 28.125 409 33.7214 409 40.625C409 47.5286 414.596 53.125 421.5 53.125Z" stroke="black" stroke-width="6.25" stroke-linecap="round" stroke-linejoin="round"/>
</svg>
