<svg width="397" height="360" viewBox="0 0 397 360" fill="none" xmlns="http://www.w3.org/2000/svg">
<rect y="19" width="46" height="341" fill="#FCB212"/>
<rect x="330" y="20" width="67" height="67" fill="#FCB212"/>
<path d="M358.385 6.28064H326.982C318.31 6.28064 311.281 13.3105 311.281 21.9822V53.3854C311.281 62.0571 318.31 69.0869 326.982 69.0869H358.385C367.057 69.0869 374.087 62.0571 374.087 53.3854V21.9822C374.087 13.3105 367.057 6.28064 358.385 6.28064Z" stroke="black" stroke-width="6.28063" stroke-linecap="round" stroke-linejoin="round"/>
<path d="M355.245 35.7053C355.632 38.3188 355.186 40.988 353.969 43.3332C352.752 45.6784 350.827 47.5801 348.467 48.768C346.107 49.9559 343.432 50.3693 340.824 49.9496C338.215 49.5298 335.806 48.2982 333.937 46.43C332.069 44.5618 330.838 42.152 330.418 39.5435C329.998 36.9349 330.411 34.2604 331.599 31.9004C332.787 29.5404 334.689 27.6151 337.034 26.3982C339.379 25.1813 342.049 24.7349 344.662 25.1225C347.328 25.5178 349.796 26.76 351.702 28.6657C353.607 30.5714 354.85 33.0394 355.245 35.7053Z" stroke="black" stroke-width="6.28063" stroke-linecap="round" stroke-linejoin="round"/>
<path d="M359.956 20.412H359.987" stroke="black" stroke-width="6.28063" stroke-linecap="round" stroke-linejoin="round"/>
</svg>
